<svg xmlns="http://www.w3.org/2000/svg" xmlns:xlink="http://www.w3.org/1999/xlink" width="600" zoomAndPan="magnify" viewBox="0 0 450 457.91998" height="600" preserveAspectRatio="xMidYMid meet" version="1.2"><defs><clipPath id="039ac451d6"><path d="M 120 67 L 304 67 L 304 383.648438 L 120 383.648438 Z M 120 67 "/></clipPath><clipPath id="3d9f98bd51"><path d="M 74.613281 311 L 96 311 L 96 320 L 74.613281 320 Z M 74.613281 311 "/></clipPath><clipPath id="5aae6e1511"><path d="M 353 135 L 375.3125 135 L 375.3125 143 L 353 143 Z M 353 135 "/></clipPath></defs><g id="e1ef5029de"><path style=" stroke:none;fill-rule:nonzero;fill:#ffffff;fill-opacity:1;" d="M 331.511719 124.5 C 330.488281 123.78125 329.066406 124.03125 328.351562 125.058594 L 319.335938 137.9375 L 315.035156 134.929688 C 312.398438 133.085938 308.742188 134 307.289062 136.871094 L 300.113281 151.03125 C 298.921875 153.375 299.636719 156.238281 301.792969 157.753906 L 304.25 159.472656 L 220.445312 279.15625 L 222.800781 252.183594 L 231.375 252.9375 C 231.4375 252.941406 231.511719 252.941406 231.574219 252.941406 C 232.738281 252.941406 233.730469 252.054688 233.835938 250.863281 C 233.945312 249.617188 233.015625 248.511719 231.769531 248.402344 L 223.195312 247.648438 L 225.398438 222.484375 L 233.972656 223.230469 C 234.035156 223.238281 234.109375 223.238281 234.171875 223.238281 C 235.335938 223.238281 236.328125 222.347656 236.433594 221.160156 C 236.542969 219.90625 235.613281 218.808594 234.367188 218.695312 L 225.796875 217.945312 L 227.996094 192.777344 L 236.570312 193.523438 C 236.632812 193.53125 236.707031 193.53125 236.769531 193.53125 C 237.933594 193.53125 238.925781 192.640625 239.03125 191.453125 C 239.140625 190.199219 238.210938 189.101562 236.964844 188.992188 L 228.394531 188.242188 L 230.59375 163.078125 L 239.167969 163.824219 C 239.230469 163.832031 239.304688 163.832031 239.367188 163.832031 C 240.53125 163.832031 241.523438 162.941406 241.628906 161.753906 C 241.738281 160.5 240.808594 159.402344 239.5625 159.292969 L 230.992188 158.542969 L 233.191406 133.378906 L 241.765625 134.125 C 241.832031 134.132812 241.902344 134.132812 241.964844 134.132812 C 243.128906 134.132812 244.121094 133.242188 244.226562 132.054688 C 244.335938 130.800781 243.410156 129.703125 242.160156 129.59375 L 233.589844 128.839844 L 234.09375 123.027344 C 234.207031 121.777344 233.277344 120.675781 232.03125 120.566406 C 230.769531 120.453125 229.679688 121.382812 229.570312 122.628906 L 229.0625 128.441406 L 220.488281 127.695312 C 219.230469 127.570312 218.136719 128.507812 218.027344 129.761719 C 217.917969 131.015625 218.847656 132.113281 220.09375 132.222656 L 228.664062 132.96875 L 226.464844 158.136719 L 217.890625 157.386719 C 216.632812 157.273438 215.539062 158.207031 215.429688 159.453125 C 215.320312 160.699219 216.25 161.804688 217.496094 161.914062 L 226.066406 162.660156 L 223.867188 187.828125 L 215.292969 187.082031 C 214.039062 186.964844 212.941406 187.898438 212.832031 189.148438 C 212.722656 190.394531 213.648438 191.496094 214.898438 191.609375 L 223.46875 192.363281 L 221.269531 217.527344 L 212.695312 216.78125 C 211.441406 216.65625 210.34375 217.597656 210.234375 218.847656 C 210.125 220.101562 211.050781 221.199219 212.300781 221.308594 L 220.871094 222.054688 L 218.671875 247.222656 L 210.097656 246.46875 C 208.839844 246.34375 207.746094 247.277344 207.636719 248.53125 C 207.527344 249.78125 208.453125 250.882812 209.703125 250.996094 L 218.273438 251.746094 L 215.371094 284.910156 L 196.5 283.257812 C 196.5 283.257812 196.5 283.257812 196.492188 283.257812 L 159.550781 280.023438 C 158.914062 279.964844 158.363281 279.65625 157.992188 279.128906 C 157.621094 278.609375 157.5 277.980469 157.65625 277.363281 L 204.550781 88.636719 C 204.8125 87.605469 205.765625 86.921875 206.824219 87.015625 L 262.664062 91.898438 C 263.722656 91.988281 264.546875 92.828125 264.621094 93.890625 L 271.375 191.589844 C 271.457031 192.84375 272.542969 193.796875 273.796875 193.699219 C 275.050781 193.613281 275.992188 192.53125 275.90625 191.277344 L 269.152344 93.578125 C 268.925781 90.273438 266.359375 87.664062 263.054688 87.371094 L 207.214844 82.488281 C 203.910156 82.195312 200.933594 84.324219 200.136719 87.539062 L 153.238281 276.265625 C 152.765625 278.167969 153.148438 280.175781 154.285156 281.773438 C 155.421875 283.371094 157.195312 284.382812 159.148438 284.550781 L 223.890625 290.214844 L 235.691406 291.246094 C 235.691406 291.246094 235.691406 291.246094 235.699219 291.246094 L 275.308594 294.714844 C 275.503906 294.734375 275.699219 294.742188 275.894531 294.742188 C 277.640625 294.742188 279.324219 294.058594 280.582031 292.824219 C 281.980469 291.449219 282.707031 289.546875 282.570312 287.585938 L 277.777344 218.289062 C 277.691406 217.035156 276.609375 216.09375 275.355469 216.175781 C 274.101562 216.261719 273.160156 217.347656 273.246094 218.597656 L 278.039062 287.894531 C 278.082031 288.53125 277.855469 289.128906 277.402344 289.578125 C 276.945312 290.027344 276.34375 290.242188 275.707031 290.1875 L 221.546875 285.453125 L 307.964844 162.039062 L 310.417969 163.757812 C 312.574219 165.265625 315.511719 164.960938 317.308594 163.046875 L 328.160156 151.457031 C 330.363281 149.109375 329.972656 145.359375 327.335938 143.515625 L 323.039062 140.507812 L 332.050781 127.628906 C 332.785156 126.636719 332.539062 125.222656 331.511719 124.5 Z M 331.511719 124.5 "/><g clip-rule="nonzero" clip-path="url(#039ac451d6)"><path style=" stroke:none;fill-rule:nonzero;fill:#ffffff;fill-opacity:1;" d="M 292.597656 199.273438 C 292.511719 198.019531 291.414062 197.070312 290.175781 197.160156 C 288.921875 197.246094 287.980469 198.328125 288.066406 199.582031 L 299.027344 358.132812 C 299.15625 360.058594 298.449219 361.925781 297.078125 363.277344 C 295.707031 364.628906 293.820312 365.296875 291.902344 365.136719 L 137.808594 351.644531 L 132.851562 351.210938 L 130.617188 351.015625 C 128.703125 350.847656 126.960938 349.855469 125.84375 348.289062 C 124.726562 346.722656 124.351562 344.753906 124.816406 342.886719 L 190.148438 79.988281 C 191.457031 74.699219 196.355469 71.21875 201.773438 71.6875 L 270.328125 77.6875 C 275.75 78.160156 279.960938 82.449219 280.335938 87.878906 L 286.121094 171.585938 C 286.207031 172.839844 287.304688 173.792969 288.546875 173.695312 C 289.796875 173.613281 290.742188 172.527344 290.65625 171.273438 L 284.871094 87.566406 C 284.335938 79.890625 278.386719 73.828125 270.722656 73.160156 L 202.167969 67.160156 C 194.496094 66.476562 187.585938 71.421875 185.730469 78.894531 L 120.402344 341.792969 C 119.617188 344.957031 120.253906 348.28125 122.140625 350.933594 C 124.03125 353.582031 126.980469 355.265625 130.222656 355.550781 L 130.597656 355.582031 L 131.996094 368.140625 C 132.113281 369.21875 132.976562 370.066406 134.054688 370.15625 L 148.472656 371.414062 C 148.535156 371.421875 148.609375 371.421875 148.671875 371.421875 C 149.671875 371.421875 150.570312 370.765625 150.855469 369.792969 L 154.414062 357.667969 L 267.316406 367.546875 L 268.710938 380.105469 C 268.828125 381.183594 269.691406 382.027344 270.769531 382.117188 L 285.1875 383.378906 C 285.253906 383.386719 285.324219 383.386719 285.390625 383.386719 C 286.390625 383.386719 287.285156 382.730469 287.570312 381.75 L 291.125 369.625 L 291.5 369.65625 C 291.824219 369.683594 292.148438 369.699219 292.472656 369.699219 C 295.378906 369.699219 298.171875 368.570312 300.261719 366.519531 C 302.585938 364.238281 303.789062 361.070312 303.558594 357.824219 Z M 147.015625 366.726562 L 136.308594 365.792969 L 135.214844 355.992188 L 149.789062 357.265625 Z M 283.726562 378.683594 L 273.015625 377.746094 L 271.925781 367.949219 L 286.5 369.21875 Z M 283.726562 378.683594 "/></g><path style=" stroke:none;fill-rule:nonzero;fill:#ffffff;fill-opacity:1;" d="M 93.320312 364.738281 L 79.988281 375.144531 C 79 375.917969 78.824219 377.34375 79.597656 378.332031 C 80.042969 378.902344 80.714844 379.210938 81.390625 379.210938 C 81.875 379.210938 82.371094 379.054688 82.785156 378.730469 L 96.117188 368.324219 C 97.105469 367.550781 97.28125 366.121094 96.507812 365.136719 C 95.734375 364.140625 94.3125 363.964844 93.320312 364.738281 Z M 93.320312 364.738281 "/><g clip-rule="nonzero" clip-path="url(#3d9f98bd51)"><path style=" stroke:none;fill-rule:nonzero;fill:#ffffff;fill-opacity:1;" d="M 93.539062 319.894531 C 94.554688 319.894531 95.476562 319.210938 95.742188 318.1875 C 96.054688 316.972656 95.328125 315.730469 94.113281 315.417969 L 77.738281 311.191406 C 76.523438 310.875 75.285156 311.609375 74.972656 312.820312 C 74.660156 314.035156 75.386719 315.277344 76.601562 315.589844 L 92.976562 319.816406 C 93.15625 319.875 93.351562 319.894531 93.539062 319.894531 Z M 93.539062 319.894531 "/></g><path style=" stroke:none;fill-rule:nonzero;fill:#ffffff;fill-opacity:1;" d="M 343.4375 79.34375 C 342.320312 78.765625 340.949219 79.207031 340.371094 80.316406 L 332.605469 95.339844 C 332.027344 96.457031 332.460938 97.828125 333.578125 98.40625 C 333.910156 98.582031 334.265625 98.660156 334.617188 98.660156 C 335.441406 98.660156 336.234375 98.210938 336.636719 97.429688 L 344.40625 82.410156 C 344.988281 81.292969 344.546875 79.921875 343.4375 79.34375 Z M 343.4375 79.34375 "/><g clip-rule="nonzero" clip-path="url(#5aae6e1511)"><path style=" stroke:none;fill-rule:nonzero;fill:#ffffff;fill-opacity:1;" d="M 375 136.9375 C 374.78125 135.703125 373.597656 134.878906 372.363281 135.097656 L 355.71875 138.09375 C 354.484375 138.3125 353.660156 139.496094 353.878906 140.730469 C 354.074219 141.828125 355.035156 142.601562 356.113281 142.601562 C 356.25 142.601562 356.378906 142.585938 356.515625 142.5625 L 373.164062 139.566406 C 374.402344 139.351562 375.226562 138.171875 375 136.9375 Z M 375 136.9375 "/></g></g></svg>