<svg xmlns="http://www.w3.org/2000/svg" xmlns:xlink="http://www.w3.org/1999/xlink" width="600" zoomAndPan="magnify" viewBox="0 0 450 457.91998" height="600" preserveAspectRatio="xMidYMid meet" version="1.2"><defs><clipPath id="99b5180a5a"><path d="M 119 69.953125 L 331 69.953125 L 331 145 L 119 145 Z M 119 69.953125 "/></clipPath><clipPath id="58184295f1"><path d="M 165 173 L 285 173 L 285 379.648438 L 165 379.648438 Z M 165 173 "/></clipPath></defs><g id="487a15dab9"><path style=" stroke:none;fill-rule:nonzero;fill:#ffffff;fill-opacity:1;" d="M 233.636719 307.941406 L 216.847656 307.941406 C 215.816406 307.941406 214.980469 308.777344 214.980469 309.808594 L 214.980469 312.742188 C 214.980469 313.769531 215.816406 314.609375 216.847656 314.609375 L 233.636719 314.609375 C 234.664062 314.609375 235.5 313.769531 235.5 312.742188 L 235.5 309.808594 C 235.5 308.777344 234.664062 307.941406 233.636719 307.941406 Z M 233.636719 307.941406 "/><path style=" stroke:none;fill-rule:nonzero;fill:#ffffff;fill-opacity:1;" d="M 302.019531 103.949219 C 303.234375 103.609375 304.167969 103.035156 304.808594 102.214844 C 305.445312 101.40625 305.773438 100.28125 305.773438 98.847656 C 305.773438 97.730469 305.511719 96.746094 305 95.894531 C 304.480469 95.042969 303.765625 94.40625 302.84375 93.984375 C 301.976562 93.578125 300.269531 93.375 297.710938 93.375 L 290.851562 93.375 L 290.851562 104.453125 L 297.507812 104.453125 C 299.304688 104.460938 300.804688 104.289062 302.019531 103.949219 Z M 302.019531 103.949219 "/><path style=" stroke:none;fill-rule:nonzero;fill:#ffffff;fill-opacity:1;" d="M 244.757812 95.171875 L 239.332031 111.800781 L 250.292969 111.800781 Z M 244.757812 95.171875 "/><path style=" stroke:none;fill-rule:nonzero;fill:#ffffff;fill-opacity:1;" d="M 147.074219 118.101562 C 148.035156 119.324219 149.132812 120.230469 150.378906 120.839844 C 151.621094 121.445312 152.988281 121.746094 154.472656 121.746094 C 156.375 121.746094 158.121094 121.222656 159.714844 120.179688 C 161.304688 119.140625 162.578125 117.519531 163.515625 115.339844 C 164.457031 113.160156 164.929688 110.476562 164.929688 107.285156 C 164.929688 104.339844 164.496094 101.78125 163.625 99.621094 C 162.757812 97.460938 161.523438 95.824219 159.910156 94.71875 C 158.300781 93.613281 156.453125 93.054688 154.367188 93.054688 C 152.886719 93.054688 151.511719 93.363281 150.25 93.976562 C 148.992188 94.589844 147.90625 95.484375 146.996094 96.65625 C 146.089844 97.824219 145.375 99.328125 144.84375 101.148438 C 144.320312 102.972656 144.058594 105.023438 144.058594 107.292969 C 144.058594 109.582031 144.320312 111.652344 144.84375 113.507812 C 145.367188 115.355469 146.109375 116.886719 147.074219 118.101562 Z M 147.074219 118.101562 "/><g clip-rule="nonzero" clip-path="url(#99b5180a5a)"><path style=" stroke:none;fill-rule:nonzero;fill:#ffffff;fill-opacity:1;" d="M 133.234375 144.84375 L 317.246094 144.84375 C 324.664062 144.84375 330.671875 138.835938 330.671875 131.417969 L 330.671875 83.375 C 330.671875 75.960938 324.664062 69.953125 317.246094 69.953125 L 133.234375 69.953125 C 125.816406 69.953125 119.808594 75.960938 119.808594 83.375 L 119.808594 131.417969 C 119.808594 138.835938 125.816406 144.84375 133.234375 144.84375 Z M 283.429688 92.257812 C 283.429688 90.5 283.789062 89.226562 284.503906 88.433594 C 285.21875 87.648438 286.382812 87.25 287.980469 87.25 L 300.070312 87.25 C 301.738281 87.25 303.164062 87.328125 304.347656 87.488281 C 305.53125 87.640625 306.597656 87.960938 307.550781 88.433594 C 308.699219 88.964844 309.71875 89.726562 310.605469 90.714844 C 311.488281 91.707031 312.160156 92.859375 312.621094 94.167969 C 313.078125 95.480469 313.308594 96.867188 313.308594 98.328125 C 313.308594 101.335938 312.535156 103.738281 310.996094 105.527344 C 309.453125 107.324219 307.113281 108.597656 303.976562 109.351562 C 305.292969 110.117188 306.550781 111.257812 307.753906 112.757812 C 308.957031 114.261719 310.03125 115.859375 310.96875 117.554688 C 311.910156 119.246094 312.644531 120.777344 313.175781 122.144531 C 313.699219 123.511719 313.960938 124.445312 313.960938 124.960938 C 313.960938 125.492188 313.808594 126.019531 313.5 126.542969 C 313.195312 127.066406 312.773438 127.476562 312.234375 127.777344 C 311.699219 128.078125 311.085938 128.230469 310.382812 128.230469 C 309.542969 128.230469 308.847656 128.011719 308.277344 127.582031 C 307.710938 127.15625 307.222656 126.605469 306.816406 125.949219 C 306.40625 125.289062 305.847656 124.316406 305.152344 123.03125 L 302.171875 117.589844 C 301.105469 115.597656 300.152344 114.074219 299.308594 113.027344 C 298.464844 111.980469 297.609375 111.269531 296.746094 110.886719 C 295.875 110.503906 294.78125 110.308594 293.464844 110.308594 L 290.863281 110.308594 L 290.863281 123.257812 C 290.863281 124.960938 290.519531 126.214844 289.839844 127.019531 C 289.15625 127.828125 288.261719 128.230469 287.164062 128.230469 C 285.980469 128.230469 285.058594 127.808594 284.40625 126.964844 C 283.753906 126.121094 283.429688 124.886719 283.429688 123.257812 Z M 267.734375 91.515625 C 267.734375 89.867188 268.074219 88.632812 268.757812 87.808594 C 269.441406 86.984375 270.324219 86.574219 271.410156 86.574219 C 272.53125 86.574219 273.429688 86.984375 274.128906 87.792969 C 274.816406 88.613281 275.164062 89.851562 275.164062 91.519531 L 275.164062 123.261719 C 275.164062 124.929688 274.816406 126.175781 274.128906 127.003906 C 273.4375 127.828125 272.53125 128.234375 271.410156 128.234375 C 270.34375 128.234375 269.460938 127.820312 268.769531 126.984375 C 268.078125 126.152344 267.734375 124.90625 267.734375 123.257812 Z M 228.195312 122.847656 C 228.359375 122.257812 228.636719 121.445312 229.019531 120.398438 L 238.402344 94.230469 C 238.671875 93.484375 238.992188 92.578125 239.371094 91.527344 C 239.746094 90.472656 240.144531 89.597656 240.570312 88.898438 C 241 88.203125 241.554688 87.640625 242.246094 87.210938 C 242.9375 86.785156 243.792969 86.566406 244.808594 86.566406 C 245.84375 86.566406 246.707031 86.785156 247.398438 87.210938 C 248.089844 87.640625 248.652344 88.195312 249.074219 88.875 C 249.503906 89.550781 249.859375 90.28125 250.148438 91.0625 C 250.441406 91.839844 250.8125 92.875 251.261719 94.179688 L 260.84375 120.179688 C 261.589844 122.164062 261.96875 123.601562 261.96875 124.496094 C 261.96875 125.429688 261.617188 126.285156 260.90625 127.066406 C 260.199219 127.847656 259.339844 128.234375 258.34375 128.234375 C 257.761719 128.234375 257.257812 128.121094 256.839844 127.890625 C 256.425781 127.660156 256.074219 127.347656 255.792969 126.957031 C 255.511719 126.5625 255.203125 125.960938 254.878906 125.140625 C 254.550781 124.328125 254.269531 123.609375 254.039062 122.980469 L 252.289062 117.925781 L 237.375 117.925781 L 235.621094 123.089844 C 234.9375 125.101562 234.355469 126.464844 233.871094 127.167969 C 233.386719 127.871094 232.59375 128.230469 231.492188 128.230469 C 230.558594 128.230469 229.734375 127.851562 229.011719 127.105469 C 228.296875 126.355469 227.9375 125.5 227.9375 124.546875 C 227.945312 123.996094 228.027344 123.433594 228.195312 122.847656 Z M 178.917969 92.472656 C 178.917969 91.15625 179.050781 90.121094 179.320312 89.367188 C 179.640625 88.542969 180.164062 87.871094 180.898438 87.347656 C 181.632812 86.824219 182.425781 86.558594 183.277344 86.558594 C 183.941406 86.558594 184.519531 86.683594 184.992188 86.917969 C 185.464844 87.15625 185.886719 87.476562 186.242188 87.878906 C 186.601562 88.28125 186.964844 88.804688 187.34375 89.445312 C 187.722656 90.082031 188.105469 90.753906 188.507812 91.449219 L 202.796875 115.195312 L 202.796875 91.238281 C 202.796875 89.679688 203.101562 88.515625 203.710938 87.738281 C 204.316406 86.957031 205.140625 86.566406 206.175781 86.566406 C 207.246094 86.566406 208.089844 86.957031 208.703125 87.738281 C 209.324219 88.515625 209.628906 89.6875 209.628906 91.238281 L 209.628906 122.929688 C 209.628906 126.464844 208.292969 128.234375 205.628906 128.234375 C 204.960938 128.234375 204.363281 128.128906 203.824219 127.921875 C 203.289062 127.710938 202.789062 127.378906 202.324219 126.917969 C 201.855469 126.457031 201.421875 125.929688 201.019531 125.308594 C 200.617188 124.695312 200.21875 124.066406 199.816406 123.429688 L 185.878906 99.960938 L 185.878906 123.570312 C 185.878906 125.109375 185.554688 126.273438 184.902344 127.058594 C 184.25 127.847656 183.417969 128.242188 182.402344 128.242188 C 181.351562 128.242188 180.507812 127.847656 179.875 127.046875 C 179.242188 126.246094 178.925781 125.089844 178.925781 123.570312 L 178.925781 92.472656 Z M 137.734375 98.769531 C 138.546875 96.1875 139.714844 93.988281 141.25 92.171875 C 142.785156 90.359375 144.652344 88.96875 146.855469 88.011719 C 149.054688 87.054688 151.5625 86.566406 154.363281 86.566406 C 158.167969 86.566406 161.433594 87.417969 164.164062 89.109375 C 166.894531 90.804688 168.957031 93.214844 170.359375 96.339844 C 171.757812 99.46875 172.460938 103.136719 172.460938 107.351562 C 172.460938 110.464844 172.078125 113.296875 171.308594 115.839844 C 170.542969 118.382812 169.390625 120.597656 167.859375 122.464844 C 166.324219 124.328125 164.4375 125.761719 162.199219 126.753906 C 159.960938 127.742188 157.40625 128.234375 154.515625 128.234375 C 151.644531 128.234375 149.074219 127.722656 146.804688 126.707031 C 144.535156 125.691406 142.644531 124.257812 141.121094 122.40625 C 139.601562 120.558594 138.457031 118.328125 137.683594 115.726562 C 136.910156 113.125 136.519531 110.308594 136.519531 107.285156 C 136.527344 104.191406 136.929688 101.355469 137.734375 98.769531 Z M 137.734375 98.769531 "/></g><path style=" stroke:none;fill-rule:nonzero;fill:#ffffff;fill-opacity:1;" d="M 123.722656 353.164062 C 122.550781 352.761719 121.277344 353.382812 120.875 354.550781 L 115.449219 370.292969 C 115.046875 371.460938 115.667969 372.734375 116.835938 373.136719 C 117.078125 373.21875 117.320312 373.257812 117.566406 373.257812 C 118.492188 373.257812 119.359375 372.675781 119.679688 371.75 L 125.109375 356.007812 C 125.511719 354.839844 124.890625 353.566406 123.722656 353.164062 Z M 123.722656 353.164062 "/><path style=" stroke:none;fill-rule:nonzero;fill:#ffffff;fill-opacity:1;" d="M 87.339844 316.445312 L 71.554688 321.730469 C 70.386719 322.121094 69.753906 323.394531 70.140625 324.5625 C 70.457031 325.496094 71.324219 326.089844 72.265625 326.089844 C 72.5 326.089844 72.738281 326.050781 72.972656 325.976562 L 88.757812 320.6875 C 89.929688 320.296875 90.5625 319.027344 90.171875 317.855469 C 89.78125 316.6875 88.515625 316.054688 87.339844 316.445312 Z M 87.339844 316.445312 "/><path style=" stroke:none;fill-rule:nonzero;fill:#ffffff;fill-opacity:1;" d="M 335.441406 164.847656 C 335.824219 165.109375 336.261719 165.230469 336.6875 165.230469 C 337.40625 165.230469 338.113281 164.886719 338.542969 164.246094 L 347.851562 150.445312 C 348.542969 149.421875 348.273438 148.027344 347.25 147.339844 C 346.226562 146.648438 344.832031 146.917969 344.144531 147.9375 L 334.835938 161.742188 C 334.144531 162.765625 334.414062 164.15625 335.441406 164.847656 Z M 335.441406 164.847656 "/><path style=" stroke:none;fill-rule:nonzero;fill:#ffffff;fill-opacity:1;" d="M 377.40625 197.085938 L 360.804688 198.277344 C 359.570312 198.367188 358.640625 199.433594 358.730469 200.667969 C 358.816406 201.84375 359.800781 202.746094 360.960938 202.746094 C 361.015625 202.746094 361.070312 202.746094 361.121094 202.738281 L 377.726562 201.550781 C 378.957031 201.460938 379.886719 200.394531 379.796875 199.160156 C 379.707031 197.925781 378.640625 197 377.40625 197.085938 Z M 377.40625 197.085938 "/><path style=" stroke:none;fill-rule:nonzero;fill:#ffffff;fill-opacity:1;" d="M 201.230469 290.449219 C 202.464844 290.449219 203.464844 289.445312 203.464844 288.210938 L 203.464844 273.578125 C 203.464844 272.34375 202.464844 271.339844 201.230469 271.339844 C 199.996094 271.339844 198.992188 272.34375 198.992188 273.578125 L 198.992188 288.210938 C 198.992188 289.445312 199.988281 290.449219 201.230469 290.449219 Z M 201.230469 290.449219 "/><path style=" stroke:none;fill-rule:nonzero;fill:#ffffff;fill-opacity:1;" d="M 217.238281 290.449219 C 218.472656 290.449219 219.472656 289.445312 219.472656 288.210938 L 219.472656 273.578125 C 219.472656 272.34375 218.472656 271.339844 217.238281 271.339844 C 216.003906 271.339844 215 272.34375 215 273.578125 L 215 288.210938 C 215 289.445312 216.003906 290.449219 217.238281 290.449219 Z M 217.238281 290.449219 "/><path style=" stroke:none;fill-rule:nonzero;fill:#ffffff;fill-opacity:1;" d="M 233.246094 290.449219 C 234.480469 290.449219 235.480469 289.445312 235.480469 288.210938 L 235.480469 273.578125 C 235.480469 272.34375 234.480469 271.339844 233.246094 271.339844 C 232.011719 271.339844 231.007812 272.34375 231.007812 273.578125 L 231.007812 288.210938 C 231.007812 289.445312 232.011719 290.449219 233.246094 290.449219 Z M 233.246094 290.449219 "/><path style=" stroke:none;fill-rule:nonzero;fill:#ffffff;fill-opacity:1;" d="M 249.253906 290.449219 C 250.488281 290.449219 251.492188 289.445312 251.492188 288.210938 L 251.492188 273.578125 C 251.492188 272.34375 250.488281 271.339844 249.253906 271.339844 C 248.019531 271.339844 247.015625 272.34375 247.015625 273.578125 L 247.015625 288.210938 C 247.015625 289.445312 248.019531 290.449219 249.253906 290.449219 Z M 249.253906 290.449219 "/><path style=" stroke:none;fill-rule:nonzero;fill:#ffffff;fill-opacity:1;" d="M 297.441406 182.839844 C 296.476562 182.070312 295.0625 182.230469 294.296875 183.203125 C 293.53125 184.167969 293.691406 185.582031 294.660156 186.347656 C 314.492188 202.074219 325.867188 225.59375 325.867188 250.878906 C 325.867188 276.15625 314.492188 299.675781 294.660156 315.40625 C 293.695312 316.175781 293.53125 317.582031 294.296875 318.554688 C 294.738281 319.109375 295.390625 319.402344 296.050781 319.402344 C 296.535156 319.402344 297.027344 319.242188 297.4375 318.917969 C 318.339844 302.335938 330.335938 277.535156 330.335938 250.882812 C 330.339844 224.21875 318.347656 199.421875 297.441406 182.839844 Z M 297.441406 182.839844 "/><path style=" stroke:none;fill-rule:nonzero;fill:#ffffff;fill-opacity:1;" d="M 314.5 164.804688 C 313.546875 164.015625 312.132812 164.152344 311.347656 165.105469 C 310.5625 166.054688 310.695312 167.46875 311.648438 168.253906 C 336.40625 188.6875 350.605469 218.804688 350.605469 250.871094 C 350.605469 282.664062 336.605469 312.609375 312.199219 333.027344 C 311.25 333.820312 311.125 335.234375 311.917969 336.179688 C 312.355469 336.710938 312.996094 336.976562 313.636719 336.976562 C 314.140625 336.976562 314.652344 336.804688 315.066406 336.453125 C 340.5 315.183594 355.082031 283.988281 355.082031 250.863281 C 355.085938 217.460938 340.292969 186.09375 314.5 164.804688 Z M 314.5 164.804688 "/><path style=" stroke:none;fill-rule:nonzero;fill:#ffffff;fill-opacity:1;" d="M 155.820312 186.347656 C 156.785156 185.582031 156.953125 184.175781 156.183594 183.203125 C 155.417969 182.238281 154.011719 182.070312 153.039062 182.839844 C 132.132812 199.421875 120.140625 224.21875 120.140625 250.871094 C 120.140625 277.523438 132.132812 302.320312 153.039062 318.90625 C 153.449219 319.230469 153.941406 319.390625 154.425781 319.390625 C 155.085938 319.390625 155.738281 319.101562 156.179688 318.539062 C 156.945312 317.574219 156.785156 316.164062 155.8125 315.394531 C 135.988281 299.675781 124.617188 276.15625 124.617188 250.871094 C 124.617188 225.59375 135.988281 202.074219 155.820312 186.347656 Z M 155.820312 186.347656 "/><path style=" stroke:none;fill-rule:nonzero;fill:#ffffff;fill-opacity:1;" d="M 99.871094 250.871094 C 99.871094 219.078125 113.871094 189.136719 138.277344 168.714844 C 139.222656 167.921875 139.351562 166.511719 138.558594 165.5625 C 137.765625 164.617188 136.355469 164.492188 135.40625 165.28125 C 109.976562 186.558594 95.394531 217.757812 95.394531 250.871094 C 95.394531 283.992188 109.976562 315.183594 135.40625 336.460938 C 135.824219 336.8125 136.335938 336.984375 136.839844 336.984375 C 137.480469 336.984375 138.113281 336.710938 138.558594 336.183594 C 139.351562 335.238281 139.222656 333.824219 138.277344 333.035156 C 113.871094 312.609375 99.871094 282.664062 99.871094 250.871094 Z M 99.871094 250.871094 "/><g clip-rule="nonzero" clip-path="url(#58184295f1)"><path style=" stroke:none;fill-rule:nonzero;fill:#ffffff;fill-opacity:1;" d="M 279.253906 248.398438 L 277.386719 248.398438 L 277.386719 246.273438 C 277.386719 242.472656 274.292969 239.371094 270.484375 239.371094 L 264.289062 239.371094 L 264.289062 200.003906 C 264.289062 185.574219 252.589844 173.875 238.160156 173.875 L 212.320312 173.875 C 197.890625 173.875 186.191406 185.574219 186.191406 200.003906 L 186.191406 239.371094 L 180 239.371094 C 176.195312 239.371094 173.09375 242.464844 173.09375 246.273438 L 173.09375 248.398438 L 171.226562 248.398438 C 168.191406 248.398438 165.722656 250.863281 165.722656 253.902344 L 165.722656 286.339844 C 165.722656 287.207031 165.75 288.078125 165.785156 288.941406 C 165.800781 289.234375 165.832031 289.515625 165.851562 289.8125 C 165.890625 290.378906 165.921875 290.949219 165.976562 291.511719 C 166.011719 291.855469 166.066406 292.203125 166.105469 292.546875 C 166.164062 293.046875 166.222656 293.542969 166.296875 294.042969 C 166.355469 294.421875 166.425781 294.785156 166.496094 295.160156 C 166.578125 295.621094 166.648438 296.082031 166.738281 296.535156 C 166.816406 296.925781 166.910156 297.308594 167 297.691406 C 167.097656 298.121094 167.191406 298.554688 167.300781 298.984375 C 167.402344 299.382812 167.519531 299.769531 167.628906 300.167969 C 167.742188 300.578125 167.851562 300.980469 167.972656 301.382812 C 168.09375 301.785156 168.234375 302.179688 168.371094 302.582031 C 168.496094 302.96875 168.617188 303.351562 168.757812 303.734375 C 168.90625 304.144531 169.066406 304.546875 169.226562 304.949219 C 169.367188 305.308594 169.5 305.671875 169.65625 306.03125 C 169.828125 306.4375 170.011719 306.847656 170.199219 307.25 C 170.351562 307.589844 170.5 307.929688 170.65625 308.265625 C 170.855469 308.683594 171.066406 309.089844 171.273438 309.5 C 171.433594 309.8125 171.589844 310.132812 171.757812 310.445312 C 171.980469 310.863281 172.21875 311.273438 172.449219 311.679688 C 172.613281 311.976562 172.78125 312.269531 172.953125 312.5625 C 173.203125 312.980469 173.464844 313.386719 173.726562 313.804688 C 173.898438 314.070312 174.070312 314.347656 174.246094 314.617188 C 174.519531 315.03125 174.808594 315.441406 175.101562 315.847656 C 175.28125 316.097656 175.453125 316.347656 175.632812 316.589844 C 175.9375 317.007812 176.25 317.414062 176.570312 317.824219 C 176.75 318.046875 176.921875 318.277344 177.101562 318.503906 C 177.433594 318.917969 177.78125 319.320312 178.132812 319.722656 C 178.308594 319.929688 178.484375 320.132812 178.660156 320.332031 C 179.027344 320.738281 179.402344 321.140625 179.78125 321.539062 C 179.953125 321.722656 180.125 321.902344 180.304688 322.089844 C 180.703125 322.492188 181.105469 322.886719 181.511719 323.285156 C 181.679688 323.445312 181.851562 323.609375 182.023438 323.769531 C 182.453125 324.167969 182.882812 324.554688 183.324219 324.941406 C 183.488281 325.082031 183.648438 325.226562 183.816406 325.367188 C 184.269531 325.757812 184.734375 326.136719 185.203125 326.507812 C 185.363281 326.628906 185.515625 326.753906 185.675781 326.875 C 186.160156 327.253906 186.660156 327.617188 187.160156 327.984375 C 187.304688 328.089844 187.453125 328.195312 187.605469 328.300781 C 188.125 328.667969 188.648438 329.019531 189.183594 329.363281 C 189.324219 329.453125 189.460938 329.542969 189.601562 329.632812 C 190.148438 329.984375 190.707031 330.324219 191.269531 330.648438 C 191.398438 330.726562 191.523438 330.796875 191.652344 330.871094 C 192.234375 331.203125 192.824219 331.523438 193.417969 331.832031 C 193.53125 331.894531 193.652344 331.953125 193.773438 332.011719 C 194.386719 332.324219 195.003906 332.625 195.628906 332.910156 C 195.738281 332.964844 195.839844 333.007812 195.949219 333.058594 C 196.585938 333.347656 197.234375 333.628906 197.890625 333.890625 C 197.988281 333.929688 198.082031 333.964844 198.179688 334.003906 C 198.851562 334.265625 199.527344 334.523438 200.207031 334.757812 C 200.289062 334.785156 200.371094 334.816406 200.457031 334.84375 C 201.152344 335.078125 201.863281 335.308594 202.570312 335.515625 C 202.640625 335.53125 202.710938 335.550781 202.78125 335.570312 C 203.511719 335.78125 204.238281 335.972656 204.980469 336.152344 C 205.039062 336.164062 205.097656 336.179688 205.15625 336.191406 C 205.910156 336.371094 206.667969 336.535156 207.4375 336.675781 C 207.480469 336.683594 207.519531 336.691406 207.566406 336.703125 C 208.34375 336.851562 209.128906 336.976562 209.921875 337.085938 C 209.957031 337.09375 209.980469 337.09375 210.011719 337.097656 C 210.820312 337.207031 211.628906 337.304688 212.449219 337.375 C 212.460938 337.375 212.480469 337.375 212.492188 337.378906 C 213.324219 337.449219 214.160156 337.507812 215.003906 337.539062 L 215.003906 359.105469 L 207.648438 359.105469 C 197.566406 359.105469 189.363281 367.304688 189.363281 377.386719 C 189.363281 378.621094 190.367188 379.625 191.601562 379.625 L 258.898438 379.625 C 260.132812 379.625 261.136719 378.621094 261.136719 377.386719 C 261.136719 367.304688 252.933594 359.105469 242.851562 359.105469 L 235.496094 359.105469 L 235.496094 337.539062 C 262.84375 336.503906 284.773438 313.949219 284.773438 286.359375 L 284.773438 253.921875 C 284.757812 250.871094 282.292969 248.398438 279.253906 248.398438 Z M 177.5625 246.273438 C 177.5625 244.9375 178.648438 243.84375 179.992188 243.84375 L 270.484375 243.84375 C 271.820312 243.84375 272.914062 244.933594 272.914062 246.273438 L 272.914062 255 C 272.914062 256.335938 271.824219 257.429688 270.484375 257.429688 L 179.992188 257.429688 C 178.65625 257.429688 177.5625 256.34375 177.5625 255 Z M 170.199219 253.902344 C 170.199219 253.332031 170.65625 252.871094 171.226562 252.871094 L 173.09375 252.871094 L 173.09375 254.996094 C 173.09375 258.796875 176.1875 261.898438 180 261.898438 L 183.957031 261.898438 L 183.957031 286.292969 C 183.957031 295.277344 188.277344 303.816406 195.515625 309.148438 C 195.910156 309.445312 196.375 309.585938 196.835938 309.585938 C 197.519531 309.585938 198.199219 309.269531 198.640625 308.675781 C 199.375 307.679688 199.15625 306.277344 198.167969 305.550781 C 192.066406 301.054688 188.429688 293.863281 188.429688 286.300781 L 188.429688 261.90625 L 262.058594 261.90625 L 262.058594 286.300781 C 262.058594 296.472656 255.671875 305.167969 246.695312 308.605469 L 246.695312 303.113281 C 246.695312 300.078125 244.226562 297.609375 241.191406 297.609375 L 209.289062 297.609375 C 206.253906 297.609375 203.785156 300.078125 203.785156 303.113281 L 203.785156 312.894531 C 203.785156 319.257812 208.746094 324.460938 215 324.890625 L 215 333.046875 C 214.246094 333.015625 213.496094 332.964844 212.75 332.898438 C 212.722656 332.898438 212.691406 332.894531 212.667969 332.894531 C 211.945312 332.828125 211.234375 332.738281 210.523438 332.644531 C 210.472656 332.636719 210.414062 332.628906 210.363281 332.625 C 209.675781 332.527344 208.996094 332.414062 208.320312 332.285156 C 208.242188 332.273438 208.171875 332.261719 208.09375 332.246094 C 207.4375 332.117188 206.785156 331.976562 206.140625 331.824219 C 206.050781 331.804688 205.953125 331.78125 205.863281 331.761719 C 205.230469 331.609375 204.609375 331.433594 203.992188 331.257812 C 203.882812 331.222656 203.78125 331.199219 203.671875 331.167969 C 203.070312 330.988281 202.46875 330.796875 201.882812 330.589844 C 201.757812 330.554688 201.636719 330.507812 201.515625 330.46875 C 200.941406 330.265625 200.371094 330.054688 199.808594 329.832031 C 199.675781 329.78125 199.542969 329.726562 199.414062 329.671875 C 198.863281 329.445312 198.320312 329.210938 197.785156 328.96875 C 197.644531 328.902344 197.496094 328.839844 197.355469 328.777344 C 196.832031 328.53125 196.3125 328.277344 195.800781 328.015625 C 195.648438 327.9375 195.496094 327.863281 195.347656 327.777344 C 194.847656 327.515625 194.355469 327.246094 193.871094 326.972656 C 193.710938 326.882812 193.550781 326.789062 193.390625 326.699219 C 192.917969 326.421875 192.453125 326.136719 191.992188 325.839844 C 191.824219 325.734375 191.660156 325.628906 191.492188 325.523438 C 191.046875 325.234375 190.609375 324.933594 190.167969 324.625 C 189.996094 324.503906 189.824219 324.382812 189.652344 324.253906 C 189.230469 323.957031 188.8125 323.640625 188.40625 323.328125 C 188.226562 323.1875 188.046875 323.054688 187.875 322.914062 C 187.476562 322.601562 187.089844 322.28125 186.703125 321.953125 C 186.523438 321.800781 186.339844 321.640625 186.160156 321.488281 C 185.789062 321.160156 185.425781 320.835938 185.066406 320.503906 C 184.882812 320.332031 184.703125 320.15625 184.519531 319.980469 C 184.171875 319.648438 183.832031 319.3125 183.5 318.96875 C 183.316406 318.777344 183.128906 318.585938 182.953125 318.394531 C 182.632812 318.054688 182.320312 317.714844 182.003906 317.363281 C 181.820312 317.152344 181.640625 316.941406 181.457031 316.730469 C 181.160156 316.386719 180.867188 316.039062 180.585938 315.6875 C 180.402344 315.460938 180.222656 315.230469 180.042969 315 C 179.773438 314.648438 179.5 314.300781 179.238281 313.945312 C 179.058594 313.699219 178.886719 313.453125 178.707031 313.203125 C 178.457031 312.851562 178.214844 312.5 177.972656 312.136719 C 177.800781 311.871094 177.625 311.605469 177.460938 311.335938 C 177.238281 310.976562 177.011719 310.625 176.796875 310.261719 C 176.628906 309.980469 176.464844 309.691406 176.304688 309.40625 C 176.097656 309.046875 175.894531 308.6875 175.703125 308.332031 C 175.542969 308.03125 175.390625 307.722656 175.234375 307.421875 C 175.054688 307.066406 174.871094 306.707031 174.699219 306.347656 C 174.546875 306.03125 174.40625 305.703125 174.265625 305.382812 C 174.105469 305.027344 173.945312 304.667969 173.789062 304.308594 C 173.648438 303.972656 173.523438 303.632812 173.386719 303.292969 C 173.246094 302.933594 173.105469 302.578125 172.972656 302.21875 C 172.84375 301.867188 172.730469 301.503906 172.609375 301.144531 C 172.488281 300.789062 172.363281 300.4375 172.257812 300.078125 C 172.140625 299.707031 172.039062 299.324219 171.9375 298.945312 C 171.839844 298.59375 171.730469 298.242188 171.644531 297.886719 C 171.539062 297.488281 171.457031 297.09375 171.367188 296.691406 C 171.292969 296.34375 171.203125 296 171.132812 295.652344 C 171.046875 295.230469 170.976562 294.808594 170.902344 294.386719 C 170.84375 294.054688 170.78125 293.722656 170.726562 293.382812 C 170.65625 292.9375 170.605469 292.476562 170.554688 292.023438 C 170.515625 291.710938 170.472656 291.394531 170.441406 291.078125 C 170.390625 290.566406 170.359375 290.046875 170.324219 289.53125 C 170.304688 289.265625 170.28125 289 170.269531 288.738281 C 170.230469 287.949219 170.210938 287.15625 170.210938 286.363281 L 170.210938 253.902344 Z M 242.839844 363.558594 C 249.695312 363.558594 255.394531 368.578125 256.46875 375.128906 L 194.011719 375.128906 C 195.085938 368.578125 200.789062 363.558594 207.640625 363.558594 Z M 219.472656 359.085938 L 219.472656 324.933594 L 231.007812 324.933594 L 231.007812 359.085938 Z M 234.65625 320.457031 L 215.824219 320.457031 C 211.65625 320.457031 208.261719 317.0625 208.261719 312.894531 L 208.261719 303.113281 C 208.261719 302.546875 208.722656 302.085938 209.289062 302.085938 L 241.191406 302.085938 C 241.761719 302.085938 242.21875 302.546875 242.21875 303.113281 L 242.21875 312.894531 C 242.21875 317.070312 238.824219 320.457031 234.65625 320.457031 Z M 280.285156 286.339844 C 280.285156 311.464844 260.355469 332.015625 235.480469 333.046875 L 235.480469 324.890625 C 241.582031 324.472656 246.441406 319.5 246.671875 313.347656 C 258.164062 309.726562 266.527344 298.972656 266.527344 286.292969 L 266.527344 261.898438 L 270.484375 261.898438 C 274.289062 261.898438 277.386719 258.804688 277.386719 254.996094 L 277.386719 252.871094 L 279.253906 252.871094 C 279.824219 252.871094 280.285156 253.332031 280.285156 253.902344 Z M 280.285156 286.339844 "/></g></g></svg>