<svg xmlns="http://www.w3.org/2000/svg" xmlns:xlink="http://www.w3.org/1999/xlink" width="600" zoomAndPan="magnify" viewBox="0 0 450 457.91998" height="600" preserveAspectRatio="xMidYMid meet" version="1.2"><defs><clipPath id="7eeb9f27ba"><path d="M 93.808594 55.953125 L 356.261719 55.953125 L 356.261719 394 L 93.808594 394 Z M 93.808594 55.953125 "/></clipPath></defs><g id="c5038e8089"><g clip-rule="nonzero" clip-path="url(#7eeb9f27ba)"><path style=" stroke:none;fill-rule:nonzero;fill:#ffffff;fill-opacity:1;" d="M 350.339844 127.015625 L 284.96875 61.644531 C 281.300781 57.976562 276.417969 55.953125 271.222656 55.953125 L 178.777344 55.953125 C 173.578125 55.953125 168.695312 57.976562 165.019531 61.644531 L 99.652344 127.015625 C 95.976562 130.691406 93.949219 135.574219 93.949219 140.769531 L 93.949219 233.214844 C 93.949219 238.414062 95.976562 243.296875 99.652344 246.972656 L 145.980469 293.300781 L 115.527344 347.839844 C 114.367188 349.917969 114.511719 352.398438 115.910156 354.324219 C 117.304688 356.25 119.625 357.160156 121.957031 356.703125 L 165.945312 348.082031 L 181.679688 390.058594 C 182.511719 392.285156 184.503906 393.78125 186.878906 393.960938 C 187.039062 393.972656 187.195312 393.980469 187.347656 393.980469 C 189.535156 393.980469 191.519531 392.828125 192.597656 390.890625 L 223.832031 334.949219 L 255.058594 390.875 C 256.136719 392.8125 258.125 393.96875 260.308594 393.96875 C 260.464844 393.96875 260.625 393.960938 260.777344 393.945312 C 263.152344 393.765625 265.144531 392.277344 265.976562 390.042969 L 281.710938 348.066406 L 325.699219 356.691406 C 328.03125 357.15625 330.347656 356.234375 331.75 354.3125 C 333.144531 352.386719 333.292969 349.898438 332.132812 347.824219 L 302.515625 294.78125 L 350.339844 246.957031 C 354.015625 243.28125 356.039062 238.398438 356.039062 233.203125 L 356.039062 140.769531 C 356.039062 135.574219 354.015625 130.691406 350.339844 127.015625 Z M 122.09375 349.84375 L 150.910156 298.230469 L 157.226562 304.546875 L 133.144531 347.679688 Z M 180.414062 367.554688 L 171.230469 343.058594 C 170.734375 341.730469 169.46875 340.878906 168.09375 340.878906 C 167.878906 340.878906 167.664062 340.898438 167.441406 340.9375 L 141.769531 345.972656 L 162.15625 309.464844 L 165.019531 312.328125 C 168.695312 316.003906 173.578125 318.019531 178.777344 318.019531 L 208.070312 318.019531 Z M 187.457031 386.339844 L 183.5 375.792969 L 215.75 318.035156 L 225.597656 318.035156 Z M 260.214844 386.339844 L 227.675781 328.066406 L 232.597656 319.25 L 264.164062 375.785156 Z M 280.222656 340.945312 C 278.613281 340.636719 277.007812 341.519531 276.4375 343.058594 L 267.25 367.554688 L 239.597656 318.035156 L 271.222656 318.035156 C 276.417969 318.035156 281.300781 316.007812 284.976562 312.339844 L 286.34375 310.972656 L 305.894531 345.988281 Z M 325.578125 349.84375 L 314.519531 347.679688 L 291.273438 306.042969 L 297.589844 299.726562 Z M 349.332031 233.214844 C 349.332031 236.617188 348.003906 239.820312 345.597656 242.222656 L 280.226562 307.59375 C 277.820312 310 274.621094 311.320312 271.214844 311.320312 L 178.777344 311.320312 C 175.371094 311.320312 172.171875 309.992188 169.761719 307.59375 L 104.394531 242.222656 C 101.984375 239.816406 100.65625 236.617188 100.65625 233.214844 L 100.65625 140.769531 C 100.65625 137.371094 101.984375 134.164062 104.394531 131.757812 L 169.761719 66.386719 C 172.171875 63.988281 175.371094 62.660156 178.777344 62.660156 L 271.222656 62.660156 C 274.628906 62.660156 277.828125 63.988281 280.234375 66.386719 L 345.605469 131.757812 C 348.011719 134.164062 349.339844 137.363281 349.339844 140.769531 L 349.339844 233.214844 Z M 349.332031 233.214844 "/></g><path style=" stroke:none;fill-rule:nonzero;fill:#ffffff;fill-opacity:1;" d="M 270.867188 95.710938 C 267.191406 92.035156 262.308594 90.015625 257.109375 90.015625 L 192.878906 90.015625 C 187.683594 90.015625 182.800781 92.039062 179.125 95.710938 L 133.714844 141.125 C 130.039062 144.800781 128.019531 149.683594 128.019531 154.882812 L 128.019531 219.113281 C 128.019531 224.308594 130.046875 229.191406 133.714844 232.867188 L 179.132812 278.285156 C 182.808594 281.960938 187.691406 283.976562 192.886719 283.976562 L 257.117188 283.976562 C 262.316406 283.976562 267.195312 281.953125 270.871094 278.285156 L 316.289062 232.867188 C 319.964844 229.191406 321.984375 224.308594 321.984375 219.113281 L 321.984375 154.882812 C 321.984375 149.683594 319.957031 144.800781 316.289062 141.125 Z M 315.269531 219.105469 C 315.269531 222.511719 313.941406 225.710938 311.542969 228.117188 L 266.125 273.535156 C 263.714844 275.945312 260.515625 277.269531 257.109375 277.269531 L 192.878906 277.269531 C 189.472656 277.269531 186.273438 275.945312 183.867188 273.535156 L 138.449219 228.117188 C 136.042969 225.710938 134.722656 222.511719 134.722656 219.105469 L 134.722656 154.875 C 134.722656 151.46875 136.046875 148.269531 138.449219 145.863281 L 183.867188 100.445312 C 186.273438 98.035156 189.472656 96.714844 192.878906 96.714844 L 257.109375 96.714844 C 260.515625 96.714844 263.714844 98.042969 266.125 100.445312 L 311.542969 145.863281 C 313.949219 148.269531 315.269531 151.46875 315.269531 154.875 Z M 315.269531 219.105469 "/><path style=" stroke:none;fill-rule:nonzero;fill:#ffffff;fill-opacity:1;" d="M 275.117188 161.359375 L 248.324219 157.46875 C 247.273438 157.316406 246.359375 156.660156 245.890625 155.699219 L 233.910156 131.421875 C 232.230469 128.007812 228.808594 125.882812 225 125.882812 C 221.191406 125.882812 217.777344 128.007812 216.085938 131.421875 L 204.101562 155.699219 C 203.632812 156.652344 202.71875 157.316406 201.667969 157.46875 L 174.875 161.359375 C 171.105469 161.910156 168.027344 164.5 166.851562 168.128906 C 165.671875 171.75 166.636719 175.652344 169.367188 178.316406 L 188.75 197.214844 C 189.515625 197.957031 189.863281 199.023438 189.683594 200.078125 L 185.109375 226.757812 C 184.464844 230.511719 185.980469 234.234375 189.058594 236.476562 C 192.144531 238.714844 196.152344 239.003906 199.527344 237.234375 L 223.488281 224.636719 C 224.429688 224.140625 225.554688 224.140625 226.496094 224.636719 L 250.457031 237.234375 C 251.925781 238.003906 253.507812 238.386719 255.089844 238.386719 C 257.144531 238.386719 259.183594 237.742188 260.925781 236.476562 C 264.011719 234.234375 265.527344 230.511719 264.875 226.757812 L 260.304688 200.070312 C 260.121094 199.023438 260.46875 197.953125 261.234375 197.214844 L 280.617188 178.316406 C 283.347656 175.652344 284.3125 171.75 283.132812 168.128906 C 281.957031 164.503906 278.886719 161.910156 275.117188 161.359375 Z M 275.941406 173.511719 L 256.558594 192.414062 C 254.21875 194.699219 253.148438 197.984375 253.703125 201.210938 L 258.277344 227.890625 C 258.492188 229.132812 258.007812 230.3125 256.988281 231.050781 C 255.96875 231.785156 254.695312 231.878906 253.582031 231.296875 L 229.621094 218.703125 C 226.722656 217.179688 223.269531 217.179688 220.371094 218.703125 L 196.410156 231.296875 C 195.296875 231.878906 194.019531 231.792969 193 231.050781 C 191.980469 230.3125 191.507812 229.132812 191.714844 227.890625 L 196.289062 201.210938 C 196.84375 197.984375 195.769531 194.699219 193.429688 192.414062 L 174.046875 173.511719 C 173.148438 172.632812 172.839844 171.394531 173.230469 170.199219 C 173.621094 169.007812 174.589844 168.179688 175.839844 168 L 202.632812 164.109375 C 205.871094 163.640625 208.667969 161.609375 210.117188 158.671875 L 222.09375 134.394531 C 222.652344 133.265625 223.738281 132.589844 224.992188 132.589844 C 226.246094 132.589844 227.332031 133.257812 227.890625 134.394531 L 239.867188 158.671875 C 241.316406 161.609375 244.113281 163.640625 247.351562 164.109375 L 274.144531 168 C 275.394531 168.179688 276.363281 169.007812 276.753906 170.199219 C 277.148438 171.394531 276.839844 172.632812 275.941406 173.511719 Z M 275.941406 173.511719 "/></g></svg>